<?xml version="1.0" encoding="UTF-8" standalone="no"?>
<svg
   xmlns:dc="http://purl.org/dc/elements/1.1/"
   xmlns:cc="http://creativecommons.org/ns#"
   xmlns:rdf="http://www.w3.org/1999/02/22-rdf-syntax-ns#"
   xmlns:svg="http://www.w3.org/2000/svg"
   xmlns="http://www.w3.org/2000/svg"
   xmlns:sodipodi="http://sodipodi.sourceforge.net/DTD/sodipodi-0.dtd"
   xmlns:inkscape="http://www.inkscape.org/namespaces/inkscape"
   data-name="Livello 1"
   id="Livello_1"
   viewBox="0 0 151.57 151.57"
   version="1.1"
   inkscape:version="0.48.4 r9939"
   width="100%"
   height="100%"
   sodipodi:docname="add.svg">
  <metadata
     id="metadata3083">
    <rdf:RDF>
      <cc:Work
         rdf:about="">
        <dc:format>image/svg+xml</dc:format>
        <dc:type
           rdf:resource="http://purl.org/dc/dcmitype/StillImage" />
        <dc:title></dc:title>
      </cc:Work>
    </rdf:RDF>
  </metadata>
  <defs
     id="defs3081" />
  <sodipodi:namedview
     pagecolor="#ffffff"
     bordercolor="#666666"
     borderopacity="1"
     objecttolerance="10"
     gridtolerance="10"
     guidetolerance="10"
     inkscape:pageopacity="0"
     inkscape:pageshadow="2"
     inkscape:window-width="1535"
     inkscape:window-height="876"
     id="namedview3079"
     showgrid="false"
     inkscape:zoom="1.7004712"
     inkscape:cx="131.9868"
     inkscape:cy="-37.126393"
     inkscape:window-x="65"
     inkscape:window-y="24"
     inkscape:window-maximized="1"
     inkscape:current-layer="Livello_1" />
  <path
     style="fill:#000000;stroke:none;stroke-linecap:round;stroke-linejoin:round;stroke-width:7px;fill-opacity:1"
     d="M 75.78125 3.5 C 35.862107 3.5 3.5 35.862107 3.5 75.78125 C 3.5 115.70039 35.862107 148.0625 75.78125 148.0625 C 115.70039 148.0625 148.0625 115.70039 148.0625 75.78125 C 148.0625 35.862107 115.70039 3.5 75.78125 3.5 z M 75.71875 32.34375 A 3.5003504 3.5003504 0 0 1 79.28125 35.875 L 79.28125 72.34375 L 118.125 72.34375 A 3.5003504 3.5003504 0 1 1 118.125 79.34375 L 79.28125 79.34375 L 79.28125 115.6875 A 3.5003504 3.5003504 0 1 1 72.28125 115.6875 L 72.28125 79.34375 L 33.4375 79.34375 A 3.504218 3.504218 0 1 1 33.09375 72.34375 A 3.5003504 3.5003504 0 0 1 33.4375 72.34375 L 72.28125 72.34375 L 72.28125 35.875 A 3.5003504 3.5003504 0 0 1 75.71875 32.34375 z "
     id="circle3073" />
</svg>
